<mxfile host="65bd71144e">
    <diagram id="bLNtkgntKaOkkSR77tSt" name="Page-1">
        <mxGraphModel dx="1497" dy="530" grid="1" gridSize="10" guides="1" tooltips="1" connect="1" arrows="1" fold="1" page="1" pageScale="1" pageWidth="850" pageHeight="1100" math="0" shadow="0">
            <root>
                <mxCell id="0"/>
                <mxCell id="1" parent="0"/>
                <mxCell id="3" value="" style="rounded=0;whiteSpace=wrap;html=1;" parent="1" vertex="1">
                    <mxGeometry x="40" y="40" width="640" height="480" as="geometry"/>
                </mxCell>
                <mxCell id="4" value="Conversations" style="rounded=0;whiteSpace=wrap;html=1;" parent="1" vertex="1">
                    <mxGeometry x="120" y="80" width="110" height="30" as="geometry"/>
                </mxCell>
                <mxCell id="5" value="Channels" style="rounded=0;whiteSpace=wrap;html=1;" parent="1" vertex="1">
                    <mxGeometry x="305" y="80" width="110" height="30" as="geometry"/>
                </mxCell>
                <mxCell id="6" value="Profile" style="rounded=0;whiteSpace=wrap;html=1;" parent="1" vertex="1">
                    <mxGeometry x="490" y="80" width="110" height="30" as="geometry"/>
                </mxCell>
                <mxCell id="7" value="Conversation list" style="rounded=0;whiteSpace=wrap;html=1;" parent="1" vertex="1">
                    <mxGeometry x="80" y="150" width="180" height="310" as="geometry"/>
                </mxCell>
                <mxCell id="8" value="Search Conversation" style="rounded=0;whiteSpace=wrap;html=1;" parent="1" vertex="1">
                    <mxGeometry x="90" y="160" width="160" height="30" as="geometry"/>
                </mxCell>
                <mxCell id="9" value="Conversation Content" style="rounded=0;whiteSpace=wrap;html=1;" parent="1" vertex="1">
                    <mxGeometry x="280" y="150" width="360" height="310" as="geometry"/>
                </mxCell>
                <mxCell id="11" value="" style="rounded=0;whiteSpace=wrap;html=1;" parent="1" vertex="1">
                    <mxGeometry x="290" y="160" width="340" height="30" as="geometry"/>
                </mxCell>
                <mxCell id="12" value="" style="rounded=0;whiteSpace=wrap;html=1;" parent="1" vertex="1">
                    <mxGeometry x="720" y="40" width="640" height="480" as="geometry"/>
                </mxCell>
                <mxCell id="13" value="Conversations" style="rounded=0;whiteSpace=wrap;html=1;" parent="1" vertex="1">
                    <mxGeometry x="800" y="80" width="110" height="30" as="geometry"/>
                </mxCell>
                <mxCell id="14" value="Channels" style="rounded=0;whiteSpace=wrap;html=1;" parent="1" vertex="1">
                    <mxGeometry x="985" y="80" width="110" height="30" as="geometry"/>
                </mxCell>
                <mxCell id="15" value="Profile" style="rounded=0;whiteSpace=wrap;html=1;" parent="1" vertex="1">
                    <mxGeometry x="1170" y="80" width="110" height="30" as="geometry"/>
                </mxCell>
                <mxCell id="18" value="" style="rounded=0;whiteSpace=wrap;html=1;" parent="1" vertex="1">
                    <mxGeometry x="770" y="150" width="550" height="310" as="geometry"/>
                </mxCell>
                <mxCell id="19" value="Filter List" style="rounded=0;whiteSpace=wrap;html=1;" parent="1" vertex="1">
                    <mxGeometry x="790" y="160" width="510" height="50" as="geometry"/>
                </mxCell>
                <mxCell id="20" value="" style="rounded=1;whiteSpace=wrap;html=1;" parent="1" vertex="1">
                    <mxGeometry x="790" y="240" width="510" height="50" as="geometry"/>
                </mxCell>
                <mxCell id="22" value="" style="rounded=1;whiteSpace=wrap;html=1;" parent="1" vertex="1">
                    <mxGeometry x="790" y="310" width="510" height="50" as="geometry"/>
                </mxCell>
                <mxCell id="23" value="" style="rounded=1;whiteSpace=wrap;html=1;" parent="1" vertex="1">
                    <mxGeometry x="790" y="380" width="510" height="50" as="geometry"/>
                </mxCell>
                <mxCell id="24" value="Join" style="rounded=1;whiteSpace=wrap;html=1;" parent="1" vertex="1">
                    <mxGeometry x="1190" y="250" width="100" height="30" as="geometry"/>
                </mxCell>
                <mxCell id="25" value="Join" style="rounded=1;whiteSpace=wrap;html=1;" parent="1" vertex="1">
                    <mxGeometry x="1190" y="320" width="100" height="30" as="geometry"/>
                </mxCell>
                <mxCell id="26" value="Join" style="rounded=1;whiteSpace=wrap;html=1;" parent="1" vertex="1">
                    <mxGeometry x="1190" y="390" width="100" height="30" as="geometry"/>
                </mxCell>
                <mxCell id="27" value="" style="rounded=0;whiteSpace=wrap;html=1;" parent="1" vertex="1">
                    <mxGeometry x="1400" y="40" width="640" height="480" as="geometry"/>
                </mxCell>
                <mxCell id="28" value="Conversations" style="rounded=0;whiteSpace=wrap;html=1;" parent="1" vertex="1">
                    <mxGeometry x="1480" y="80" width="110" height="30" as="geometry"/>
                </mxCell>
                <mxCell id="29" value="Channels" style="rounded=0;whiteSpace=wrap;html=1;" parent="1" vertex="1">
                    <mxGeometry x="1665" y="80" width="110" height="30" as="geometry"/>
                </mxCell>
                <mxCell id="30" value="Profile" style="rounded=0;whiteSpace=wrap;html=1;" parent="1" vertex="1">
                    <mxGeometry x="1850" y="80" width="110" height="30" as="geometry"/>
                </mxCell>
                <mxCell id="31" value="" style="rounded=0;whiteSpace=wrap;html=1;" parent="1" vertex="1">
                    <mxGeometry x="1440" y="150" width="180" height="310" as="geometry"/>
                </mxCell>
                <mxCell id="32" value="Personal Details" style="rounded=0;whiteSpace=wrap;html=1;" parent="1" vertex="1">
                    <mxGeometry x="1450" y="190" width="160" height="30" as="geometry"/>
                </mxCell>
                <mxCell id="33" value="Conversation Content" style="rounded=0;whiteSpace=wrap;html=1;" parent="1" vertex="1">
                    <mxGeometry x="1640" y="150" width="360" height="310" as="geometry"/>
                </mxCell>
                <mxCell id="34" value="" style="rounded=0;whiteSpace=wrap;html=1;" parent="1" vertex="1">
                    <mxGeometry x="1650" y="160" width="340" height="30" as="geometry"/>
                </mxCell>
                <mxCell id="35" value="My Channels" style="rounded=0;whiteSpace=wrap;html=1;" parent="1" vertex="1">
                    <mxGeometry x="1450" y="230" width="160" height="30" as="geometry"/>
                </mxCell>
                <mxCell id="36" value="Terms and Services" style="rounded=0;whiteSpace=wrap;html=1;" parent="1" vertex="1">
                    <mxGeometry x="1450" y="360" width="160" height="30" as="geometry"/>
                </mxCell>
                <mxCell id="37" value="Support" style="rounded=0;whiteSpace=wrap;html=1;" parent="1" vertex="1">
                    <mxGeometry x="1450" y="400" width="160" height="30" as="geometry"/>
                </mxCell>
                <mxCell id="38" value="Create Channel" style="rounded=0;whiteSpace=wrap;html=1;" parent="1" vertex="1">
                    <mxGeometry x="90" y="420" width="160" height="30" as="geometry"/>
                </mxCell>
                <mxCell id="40" value="Conversations" style="rounded=0;whiteSpace=wrap;html=1;" parent="1" vertex="1">
                    <mxGeometry x="1450" y="270" width="160" height="30" as="geometry"/>
                </mxCell>
                <mxCell id="54" value="" style="rounded=0;whiteSpace=wrap;html=1;" parent="1" vertex="1">
                    <mxGeometry x="-640" y="40" width="640" height="480" as="geometry"/>
                </mxCell>
                <mxCell id="56" value="Log in" style="rounded=0;whiteSpace=wrap;html=1;" parent="1" vertex="1">
                    <mxGeometry x="-510" y="80" width="110" height="30" as="geometry"/>
                </mxCell>
                <mxCell id="57" value="Sign up" style="rounded=0;whiteSpace=wrap;html=1;" parent="1" vertex="1">
                    <mxGeometry x="-275" y="80" width="110" height="30" as="geometry"/>
                </mxCell>
                <mxCell id="60" value="Form" style="rounded=0;whiteSpace=wrap;html=1;" parent="1" vertex="1">
                    <mxGeometry x="-540" y="150" width="400" height="310" as="geometry"/>
                </mxCell>
                <mxCell id="61" value="" style="rounded=0;whiteSpace=wrap;html=1;" vertex="1" parent="1">
                    <mxGeometry x="720" y="560" width="640" height="480" as="geometry"/>
                </mxCell>
                <mxCell id="62" value="Conversations" style="rounded=0;whiteSpace=wrap;html=1;" vertex="1" parent="1">
                    <mxGeometry x="800" y="600" width="110" height="30" as="geometry"/>
                </mxCell>
                <mxCell id="63" value="Channels" style="rounded=0;whiteSpace=wrap;html=1;" vertex="1" parent="1">
                    <mxGeometry x="985" y="600" width="110" height="30" as="geometry"/>
                </mxCell>
                <mxCell id="64" value="Profile" style="rounded=0;whiteSpace=wrap;html=1;" vertex="1" parent="1">
                    <mxGeometry x="1170" y="600" width="110" height="30" as="geometry"/>
                </mxCell>
                <mxCell id="65" value="" style="rounded=0;whiteSpace=wrap;html=1;" vertex="1" parent="1">
                    <mxGeometry x="770" y="670" width="550" height="310" as="geometry"/>
                </mxCell>
                <mxCell id="66" value="use tags in the search" style="rounded=0;whiteSpace=wrap;html=1;" vertex="1" parent="1">
                    <mxGeometry x="790" y="680" width="510" height="140" as="geometry"/>
                </mxCell>
                <mxCell id="73" value="Search by name or description&lt;div&gt;prioritizing name&lt;/div&gt;" style="rounded=0;whiteSpace=wrap;html=1;" vertex="1" parent="1">
                    <mxGeometry x="800" y="690" width="230" height="30" as="geometry"/>
                </mxCell>
                <mxCell id="75" value="Search" style="rounded=0;whiteSpace=wrap;html=1;" vertex="1" parent="1">
                    <mxGeometry x="1230" y="780" width="60" height="30" as="geometry"/>
                </mxCell>
                <mxCell id="76" value="Dropdown status" style="rounded=0;whiteSpace=wrap;html=1;" vertex="1" parent="1">
                    <mxGeometry x="800" y="730" width="230" height="30" as="geometry"/>
                </mxCell>
            </root>
        </mxGraphModel>
    </diagram>
</mxfile>